<mxfile host="app.diagrams.net" agent="Mozilla/5.0 (Windows NT 10.0; Win64; x64) AppleWebKit/537.36 (KHTML, like Gecko) Chrome/127.0.0.0 Safari/537.36 Edg/127.0.0.0" version="24.7.6">
  <diagram name="Page-1" id="ET3p4NowZL6g9NBSUfOg">
    <mxGraphModel dx="1489" dy="810" grid="1" gridSize="10" guides="1" tooltips="1" connect="1" arrows="1" fold="1" page="1" pageScale="1" pageWidth="850" pageHeight="1100" math="0" shadow="0">
      <root>
        <mxCell id="0" />
        <mxCell id="1" parent="0" />
        <mxCell id="3ks-6ZUIJPPxvcXa6lwF-7" style="edgeStyle=orthogonalEdgeStyle;rounded=0;orthogonalLoop=1;jettySize=auto;html=1;exitX=1;exitY=0.5;exitDx=0;exitDy=0;entryX=0;entryY=0.5;entryDx=0;entryDy=0;labelBackgroundColor=none;fontColor=default;" edge="1" parent="1" source="3ks-6ZUIJPPxvcXa6lwF-1" target="3ks-6ZUIJPPxvcXa6lwF-2">
          <mxGeometry relative="1" as="geometry" />
        </mxCell>
        <mxCell id="3ks-6ZUIJPPxvcXa6lwF-8" style="edgeStyle=orthogonalEdgeStyle;rounded=0;orthogonalLoop=1;jettySize=auto;html=1;exitX=0.5;exitY=1;exitDx=0;exitDy=0;entryX=0.5;entryY=0;entryDx=0;entryDy=0;labelBackgroundColor=none;fontColor=default;" edge="1" parent="1" source="3ks-6ZUIJPPxvcXa6lwF-1" target="3ks-6ZUIJPPxvcXa6lwF-3">
          <mxGeometry relative="1" as="geometry" />
        </mxCell>
        <mxCell id="3ks-6ZUIJPPxvcXa6lwF-1" value="Register" style="rounded=0;whiteSpace=wrap;html=1;labelBackgroundColor=none;fillColor=#66B2FF;fontColor=#ffffff;strokeColor=#001DBC;" vertex="1" parent="1">
          <mxGeometry x="220" y="110" width="130" height="40" as="geometry" />
        </mxCell>
        <mxCell id="3ks-6ZUIJPPxvcXa6lwF-2" value="Email" style="rounded=0;whiteSpace=wrap;html=1;labelBackgroundColor=none;fillColor=#d80073;fontColor=#ffffff;strokeColor=#b9bc20;" vertex="1" parent="1">
          <mxGeometry x="400" y="110" width="120" height="40" as="geometry" />
        </mxCell>
        <mxCell id="3ks-6ZUIJPPxvcXa6lwF-13" style="edgeStyle=orthogonalEdgeStyle;rounded=0;orthogonalLoop=1;jettySize=auto;html=1;exitX=0.5;exitY=1;exitDx=0;exitDy=0;entryX=0.5;entryY=0;entryDx=0;entryDy=0;labelBackgroundColor=none;fontColor=default;" edge="1" parent="1" source="3ks-6ZUIJPPxvcXa6lwF-3" target="3ks-6ZUIJPPxvcXa6lwF-10">
          <mxGeometry relative="1" as="geometry">
            <Array as="points">
              <mxPoint x="285" y="300" />
              <mxPoint x="285" y="300" />
            </Array>
          </mxGeometry>
        </mxCell>
        <mxCell id="3ks-6ZUIJPPxvcXa6lwF-3" value="Login" style="rounded=0;whiteSpace=wrap;html=1;labelBackgroundColor=none;fillColor=#1ba1e2;fontColor=#ffffff;strokeColor=#006EAF;" vertex="1" parent="1">
          <mxGeometry x="220" y="220" width="130" height="40" as="geometry" />
        </mxCell>
        <mxCell id="3ks-6ZUIJPPxvcXa6lwF-26" style="edgeStyle=orthogonalEdgeStyle;rounded=0;orthogonalLoop=1;jettySize=auto;html=1;entryX=0.5;entryY=0;entryDx=0;entryDy=0;labelBackgroundColor=none;fontColor=default;" edge="1" parent="1" source="3ks-6ZUIJPPxvcXa6lwF-9" target="3ks-6ZUIJPPxvcXa6lwF-14">
          <mxGeometry relative="1" as="geometry" />
        </mxCell>
        <mxCell id="3ks-6ZUIJPPxvcXa6lwF-9" value="Profile" style="rounded=0;whiteSpace=wrap;html=1;labelBackgroundColor=none;fillColor=#60a917;fontColor=#ffffff;strokeColor=#2D7600;" vertex="1" parent="1">
          <mxGeometry x="50" y="330" width="120" height="40" as="geometry" />
        </mxCell>
        <mxCell id="3ks-6ZUIJPPxvcXa6lwF-30" style="edgeStyle=orthogonalEdgeStyle;rounded=0;orthogonalLoop=1;jettySize=auto;html=1;entryX=0.5;entryY=0;entryDx=0;entryDy=0;labelBackgroundColor=none;fontColor=default;" edge="1" parent="1" source="3ks-6ZUIJPPxvcXa6lwF-10" target="3ks-6ZUIJPPxvcXa6lwF-15">
          <mxGeometry relative="1" as="geometry" />
        </mxCell>
        <mxCell id="3ks-6ZUIJPPxvcXa6lwF-10" value="EducationDetails" style="rounded=0;whiteSpace=wrap;html=1;labelBackgroundColor=none;fillColor=#60a917;fontColor=#ffffff;strokeColor=#2D7600;" vertex="1" parent="1">
          <mxGeometry x="220" y="330" width="130" height="40" as="geometry" />
        </mxCell>
        <mxCell id="3ks-6ZUIJPPxvcXa6lwF-11" value="Experience" style="rounded=0;whiteSpace=wrap;html=1;labelBackgroundColor=none;fillColor=#60a917;fontColor=#ffffff;strokeColor=#2D7600;" vertex="1" parent="1">
          <mxGeometry x="400" y="330" width="130" height="40" as="geometry" />
        </mxCell>
        <mxCell id="3ks-6ZUIJPPxvcXa6lwF-27" style="edgeStyle=orthogonalEdgeStyle;rounded=0;orthogonalLoop=1;jettySize=auto;html=1;entryX=0.5;entryY=0;entryDx=0;entryDy=0;labelBackgroundColor=none;fontColor=default;" edge="1" parent="1" source="3ks-6ZUIJPPxvcXa6lwF-14" target="3ks-6ZUIJPPxvcXa6lwF-17">
          <mxGeometry relative="1" as="geometry" />
        </mxCell>
        <mxCell id="3ks-6ZUIJPPxvcXa6lwF-14" value="Upload_image" style="rounded=0;whiteSpace=wrap;html=1;labelBackgroundColor=none;fillColor=#f0a30a;strokeColor=#BD7000;fontColor=#000000;" vertex="1" parent="1">
          <mxGeometry x="50" y="400" width="120" height="40" as="geometry" />
        </mxCell>
        <mxCell id="3ks-6ZUIJPPxvcXa6lwF-31" style="edgeStyle=orthogonalEdgeStyle;rounded=0;orthogonalLoop=1;jettySize=auto;html=1;entryX=0.5;entryY=0;entryDx=0;entryDy=0;labelBackgroundColor=none;fontColor=default;" edge="1" parent="1" source="3ks-6ZUIJPPxvcXa6lwF-15" target="3ks-6ZUIJPPxvcXa6lwF-20">
          <mxGeometry relative="1" as="geometry" />
        </mxCell>
        <mxCell id="3ks-6ZUIJPPxvcXa6lwF-15" value="Save" style="rounded=0;whiteSpace=wrap;html=1;labelBackgroundColor=none;fillColor=#f0a30a;fontColor=#000000;strokeColor=#BD7000;" vertex="1" parent="1">
          <mxGeometry x="220" y="400" width="130" height="40" as="geometry" />
        </mxCell>
        <mxCell id="3ks-6ZUIJPPxvcXa6lwF-16" value="Save" style="rounded=0;whiteSpace=wrap;html=1;labelBackgroundColor=none;fillColor=#f0a30a;fontColor=#000000;strokeColor=#BD7000;" vertex="1" parent="1">
          <mxGeometry x="400" y="400" width="130" height="40" as="geometry" />
        </mxCell>
        <mxCell id="3ks-6ZUIJPPxvcXa6lwF-28" style="edgeStyle=orthogonalEdgeStyle;rounded=0;orthogonalLoop=1;jettySize=auto;html=1;entryX=0.5;entryY=0;entryDx=0;entryDy=0;labelBackgroundColor=none;fontColor=default;" edge="1" parent="1" source="3ks-6ZUIJPPxvcXa6lwF-17" target="3ks-6ZUIJPPxvcXa6lwF-18">
          <mxGeometry relative="1" as="geometry" />
        </mxCell>
        <mxCell id="3ks-6ZUIJPPxvcXa6lwF-17" value="Fetch_image" style="rounded=0;whiteSpace=wrap;html=1;labelBackgroundColor=none;fillColor=#b1ddf0;strokeColor=#10739e;" vertex="1" parent="1">
          <mxGeometry x="50" y="470" width="120" height="40" as="geometry" />
        </mxCell>
        <mxCell id="3ks-6ZUIJPPxvcXa6lwF-29" style="edgeStyle=orthogonalEdgeStyle;rounded=0;orthogonalLoop=1;jettySize=auto;html=1;entryX=0.5;entryY=0;entryDx=0;entryDy=0;labelBackgroundColor=none;fontColor=default;" edge="1" parent="1" source="3ks-6ZUIJPPxvcXa6lwF-18" target="3ks-6ZUIJPPxvcXa6lwF-19">
          <mxGeometry relative="1" as="geometry" />
        </mxCell>
        <mxCell id="3ks-6ZUIJPPxvcXa6lwF-18" value="Update_pwd" style="rounded=0;whiteSpace=wrap;html=1;labelBackgroundColor=none;fillColor=#647687;strokeColor=#314354;fontColor=#ffffff;" vertex="1" parent="1">
          <mxGeometry x="50" y="540" width="120" height="40" as="geometry" />
        </mxCell>
        <mxCell id="3ks-6ZUIJPPxvcXa6lwF-19" value="Delete" style="rounded=0;whiteSpace=wrap;html=1;labelBackgroundColor=none;fillColor=#e51400;fontColor=#ffffff;strokeColor=#B20000;" vertex="1" parent="1">
          <mxGeometry x="50" y="610" width="120" height="40" as="geometry" />
        </mxCell>
        <mxCell id="3ks-6ZUIJPPxvcXa6lwF-32" style="edgeStyle=orthogonalEdgeStyle;rounded=0;orthogonalLoop=1;jettySize=auto;html=1;entryX=0.5;entryY=0;entryDx=0;entryDy=0;labelBackgroundColor=none;fontColor=default;" edge="1" parent="1" source="3ks-6ZUIJPPxvcXa6lwF-20" target="3ks-6ZUIJPPxvcXa6lwF-21">
          <mxGeometry relative="1" as="geometry" />
        </mxCell>
        <mxCell id="3ks-6ZUIJPPxvcXa6lwF-20" value="Update" style="rounded=0;whiteSpace=wrap;html=1;labelBackgroundColor=none;fillColor=#b1ddf0;strokeColor=#10739e;" vertex="1" parent="1">
          <mxGeometry x="220" y="470" width="130" height="40" as="geometry" />
        </mxCell>
        <mxCell id="3ks-6ZUIJPPxvcXa6lwF-33" style="edgeStyle=orthogonalEdgeStyle;rounded=0;orthogonalLoop=1;jettySize=auto;html=1;entryX=0.5;entryY=0;entryDx=0;entryDy=0;labelBackgroundColor=none;fontColor=default;" edge="1" parent="1" source="3ks-6ZUIJPPxvcXa6lwF-21" target="3ks-6ZUIJPPxvcXa6lwF-22">
          <mxGeometry relative="1" as="geometry" />
        </mxCell>
        <mxCell id="3ks-6ZUIJPPxvcXa6lwF-21" value="Delete" style="rounded=0;whiteSpace=wrap;html=1;labelBackgroundColor=none;fillColor=#647687;fontColor=#ffffff;strokeColor=#314354;" vertex="1" parent="1">
          <mxGeometry x="220" y="540" width="130" height="40" as="geometry" />
        </mxCell>
        <mxCell id="3ks-6ZUIJPPxvcXa6lwF-22" value="Fetch" style="rounded=0;whiteSpace=wrap;html=1;labelBackgroundColor=none;fillColor=#e51400;fontColor=#ffffff;strokeColor=#B20000;" vertex="1" parent="1">
          <mxGeometry x="220" y="610" width="130" height="40" as="geometry" />
        </mxCell>
        <mxCell id="3ks-6ZUIJPPxvcXa6lwF-23" value="Update" style="rounded=0;whiteSpace=wrap;html=1;labelBackgroundColor=none;fillColor=#b1ddf0;strokeColor=#10739e;" vertex="1" parent="1">
          <mxGeometry x="400" y="470" width="130" height="40" as="geometry" />
        </mxCell>
        <mxCell id="3ks-6ZUIJPPxvcXa6lwF-87" value="" style="edgeStyle=orthogonalEdgeStyle;rounded=0;orthogonalLoop=1;jettySize=auto;html=1;" edge="1" parent="1" source="3ks-6ZUIJPPxvcXa6lwF-24" target="3ks-6ZUIJPPxvcXa6lwF-25">
          <mxGeometry relative="1" as="geometry" />
        </mxCell>
        <mxCell id="3ks-6ZUIJPPxvcXa6lwF-24" value="Delete" style="rounded=0;whiteSpace=wrap;html=1;labelBackgroundColor=none;fillColor=#647687;fontColor=#ffffff;strokeColor=#314354;" vertex="1" parent="1">
          <mxGeometry x="400" y="540" width="130" height="40" as="geometry" />
        </mxCell>
        <mxCell id="3ks-6ZUIJPPxvcXa6lwF-25" value="Fetch" style="rounded=0;whiteSpace=wrap;html=1;labelBackgroundColor=none;fillColor=#e51400;fontColor=#ffffff;strokeColor=#B20000;" vertex="1" parent="1">
          <mxGeometry x="400" y="610" width="130" height="40" as="geometry" />
        </mxCell>
        <mxCell id="3ks-6ZUIJPPxvcXa6lwF-71" value="" style="edgeStyle=none;orthogonalLoop=1;jettySize=auto;html=1;rounded=0;labelBackgroundColor=none;fontColor=default;" edge="1" parent="1">
          <mxGeometry width="100" relative="1" as="geometry">
            <mxPoint x="464.29" y="370" as="sourcePoint" />
            <mxPoint x="464" y="400" as="targetPoint" />
            <Array as="points">
              <mxPoint x="464.29" y="400" />
            </Array>
          </mxGeometry>
        </mxCell>
        <mxCell id="3ks-6ZUIJPPxvcXa6lwF-77" value="" style="endArrow=classic;html=1;rounded=0;labelBackgroundColor=none;fontColor=default;" edge="1" parent="1">
          <mxGeometry width="50" height="50" relative="1" as="geometry">
            <mxPoint x="464.29" y="510" as="sourcePoint" />
            <mxPoint x="464.29" y="540" as="targetPoint" />
          </mxGeometry>
        </mxCell>
        <mxCell id="3ks-6ZUIJPPxvcXa6lwF-78" value="" style="endArrow=classic;html=1;rounded=0;labelBackgroundColor=none;fontColor=default;" edge="1" parent="1">
          <mxGeometry width="50" height="50" relative="1" as="geometry">
            <mxPoint x="464" y="580" as="sourcePoint" />
            <mxPoint x="464" y="610" as="targetPoint" />
          </mxGeometry>
        </mxCell>
        <mxCell id="3ks-6ZUIJPPxvcXa6lwF-79" value="" style="endArrow=classic;html=1;rounded=0;labelBackgroundColor=none;fontColor=default;" edge="1" parent="1">
          <mxGeometry width="50" height="50" relative="1" as="geometry">
            <mxPoint x="464.28999999999996" y="440" as="sourcePoint" />
            <mxPoint x="464" y="470" as="targetPoint" />
          </mxGeometry>
        </mxCell>
        <mxCell id="3ks-6ZUIJPPxvcXa6lwF-80" value="" style="endArrow=classic;html=1;rounded=0;entryX=0;entryY=0.5;entryDx=0;entryDy=0;labelBackgroundColor=none;fontColor=default;" edge="1" parent="1" target="3ks-6ZUIJPPxvcXa6lwF-3">
          <mxGeometry width="50" height="50" relative="1" as="geometry">
            <mxPoint x="285" y="290" as="sourcePoint" />
            <mxPoint x="120" y="230" as="targetPoint" />
            <Array as="points">
              <mxPoint x="120" y="290" />
              <mxPoint x="120" y="240" />
            </Array>
          </mxGeometry>
        </mxCell>
        <mxCell id="3ks-6ZUIJPPxvcXa6lwF-81" value="" style="endArrow=classic;html=1;rounded=0;entryX=0;entryY=0.5;entryDx=0;entryDy=0;labelBackgroundColor=none;fontColor=default;" edge="1" parent="1" target="3ks-6ZUIJPPxvcXa6lwF-1">
          <mxGeometry width="50" height="50" relative="1" as="geometry">
            <mxPoint x="285" y="180" as="sourcePoint" />
            <mxPoint x="440" y="340" as="targetPoint" />
            <Array as="points">
              <mxPoint x="120" y="180" />
              <mxPoint x="120" y="130" />
            </Array>
          </mxGeometry>
        </mxCell>
        <mxCell id="3ks-6ZUIJPPxvcXa6lwF-82" value="" style="endArrow=classic;html=1;rounded=0;labelBackgroundColor=none;fontColor=default;" edge="1" parent="1">
          <mxGeometry width="50" height="50" relative="1" as="geometry">
            <mxPoint x="290" y="310" as="sourcePoint" />
            <mxPoint x="470" y="330" as="targetPoint" />
            <Array as="points">
              <mxPoint x="470" y="310" />
            </Array>
          </mxGeometry>
        </mxCell>
        <mxCell id="3ks-6ZUIJPPxvcXa6lwF-84" value="" style="endArrow=classic;html=1;rounded=0;entryX=0.585;entryY=0.079;entryDx=0;entryDy=0;entryPerimeter=0;labelBackgroundColor=none;fontColor=default;" edge="1" parent="1" target="3ks-6ZUIJPPxvcXa6lwF-9">
          <mxGeometry width="50" height="50" relative="1" as="geometry">
            <mxPoint x="290" y="310" as="sourcePoint" />
            <mxPoint x="440" y="340" as="targetPoint" />
            <Array as="points">
              <mxPoint x="120" y="310" />
            </Array>
          </mxGeometry>
        </mxCell>
      </root>
    </mxGraphModel>
  </diagram>
</mxfile>
